<svg width="186" height="43" viewBox="0 0 186 43" fill="none" xmlns="http://www.w3.org/2000/svg">
<path d="M0 1C0 0.447716 0.447715 0 1 0H55.197C55.7493 0 56.197 0.447715 56.197 1V7.6C56.197 8.15228 55.7493 8.6 55.197 8.6H9.633C9.08072 8.6 8.633 9.04772 8.633 9.6V16.2C8.633 16.7523 9.08072 17.2 9.633 17.2H55.197C55.7493 17.2 56.197 17.6477 56.197 18.2V24.8C56.197 25.3523 55.7493 25.8 55.197 25.8H9.633C9.08072 25.8 8.633 26.2477 8.633 26.8V42C8.633 42.5523 8.18529 43 7.633 43H1C0.447716 43 0 42.5523 0 42V1Z" fill="white"/>
<path d="M64.5 1C64.5 0.447716 64.9477 0 65.5 0H119.697C120.249 0 120.697 0.447715 120.697 1V24.8C120.697 25.3523 120.249 25.8 119.697 25.8H91.399C90.8467 25.8 90.399 26.2477 90.399 26.8V33.4C90.399 33.9523 90.8467 34.4 91.399 34.4H119.697C120.249 34.4 120.697 34.8477 120.697 35.4V42C120.697 42.5523 120.249 43 119.697 43H82.766C82.2137 43 81.766 42.5523 81.766 42V18.2C81.766 17.6477 82.2137 17.2 82.766 17.2H111.064C111.616 17.2 112.064 16.7523 112.064 16.2V9.6C112.064 9.04772 111.616 8.6 111.064 8.6H74.133C73.5807 8.6 73.133 9.04772 73.133 9.6V42C73.133 42.5523 72.6853 43 72.133 43H65.5C64.9477 43 64.5 42.5523 64.5 42V1Z" fill="white"/>
<path d="M129 1C129 0.447716 129.448 0 130 0H184.197C184.749 0 185.197 0.447715 185.197 1V42C185.197 42.5523 184.749 43 184.197 43H130C129.448 43 129 42.5523 129 42V1ZM137.633 33.4C137.633 33.9523 138.081 34.4 138.633 34.4H175.564C176.116 34.4 176.564 33.9523 176.564 33.4V26.8C176.564 26.2477 176.116 25.8 175.564 25.8H138.633C138.081 25.8 137.633 26.2477 137.633 26.8V33.4ZM137.633 16.2C137.633 16.7523 138.081 17.2 138.633 17.2H175.564C176.116 17.2 176.564 16.7523 176.564 16.2V9.6C176.564 9.04772 176.116 8.6 175.564 8.6H138.633C138.081 8.6 137.633 9.04772 137.633 9.6V16.2Z" fill="white"/>
<path d="M129 1C129 0.447716 129.448 0 130 0H184.197C184.749 0 185.197 0.447715 185.197 1V42C185.197 42.5523 184.749 43 184.197 43H130C129.448 43 129 42.5523 129 42V1ZM137.633 33.4C137.633 33.9523 138.081 34.4 138.633 34.4H175.564C176.116 34.4 176.564 33.9523 176.564 33.4V26.8C176.564 26.2477 176.116 25.8 175.564 25.8H138.633C138.081 25.8 137.633 26.2477 137.633 26.8V33.4ZM137.633 16.2C137.633 16.7523 138.081 17.2 138.633 17.2H175.564C176.116 17.2 176.564 16.7523 176.564 16.2V9.6C176.564 9.04772 176.116 8.6 175.564 8.6H138.633C138.081 8.6 137.633 9.04772 137.633 9.6V16.2Z" fill="white"/>
</svg>
